<svg width="84" height="48" viewBox="0 0 84 48" fill="none" xmlns="http://www.w3.org/2000/svg">
<g clip-path="url(#clip0_18203_197)">
<path d="M33.7847 12.9004C33.3789 8.74938 29.6794 5.71693 25.5294 6.13368C21.3949 6.54889 18.3761 10.2317 18.7805 14.3673C19.1848 18.5029 22.8596 21.5311 26.9964 21.1382C31.1484 20.7432 34.1905 17.0515 33.7847 12.9004ZM28.1655 7.87392C28.2576 7.87367 28.3263 7.89238 28.4119 7.91566L28.4305 7.9207C28.4639 8.08871 28.4304 8.16679 28.3425 8.30979C28.1887 8.56011 28.0175 8.79978 27.8463 9.03948C27.5441 9.46259 27.2419 9.8858 27.0348 10.3678C26.5858 11.413 26.6905 12.6321 26.7962 13.8639C26.8887 14.942 26.9821 16.0299 26.7058 17.0195C26.3735 18.21 25.5393 18.9888 24.4948 19.5695C24.4369 19.5792 24.373 19.5743 24.3116 19.5696C24.2988 19.5686 24.286 19.5676 24.2735 19.5668C24.2655 19.5663 24.2577 19.5658 24.2499 19.5654L24.2398 19.5463C24.1802 19.4331 24.1767 19.4262 24.2198 19.2974C24.2757 19.1304 24.387 18.9594 24.4918 18.7982C24.5319 18.7367 24.571 18.6766 24.6058 18.6187C24.9688 18.0138 25.3248 17.3603 25.4361 16.6543C25.5752 15.7727 25.5012 14.8655 25.4271 13.9583C25.3331 12.8072 25.2392 11.6555 25.5808 10.5567C26.0004 9.2066 26.9829 8.50237 28.1655 7.87392Z" fill="#0B0803"/>
<path d="M51.5341 34.7997C51.0634 30.7702 47.4156 27.8849 43.386 28.3541C39.3546 28.8233 36.4672 32.4726 36.938 36.5042C37.4088 40.5359 41.0594 43.4218 45.0906 42.9498C49.1201 42.4778 52.0047 38.8292 51.5341 34.7997ZM43.3973 30.0432C44.3721 29.9711 45.2839 30.2085 46.0703 30.7933C47.3428 31.7394 47.992 33.3032 48.207 34.834C48.4346 36.4496 48.4121 38.6934 47.3596 40.0464C46.7853 40.7838 46.0592 41.0835 45.1599 41.1935C44.2019 41.2859 43.2432 41.0289 42.4603 40.4707C41.2225 39.5779 40.5872 38.1107 40.3567 36.6408C40.0941 34.9664 40.1038 32.6232 41.1886 31.2107C41.7658 30.4592 42.4869 30.1602 43.3973 30.0432Z" fill="#0B0803"/>
<path d="M9.67462 0.0749318C10.982 -0.0965022 12.4618 0.0379586 13.7337 0.358767C14.5073 0.553871 15.2792 0.819216 16.0701 0.930494C16.5248 0.994432 17.0018 0.989317 17.4607 0.99737C17.535 2.27059 17.7806 5.32153 17.6335 6.44299C17.3992 6.48844 17.2192 6.4757 16.9836 6.44362C16.7423 6.16462 16.6288 5.54016 16.4838 5.17839C15.9521 3.85166 14.9006 2.83223 13.5822 2.29146C11.9299 1.61378 9.95726 1.70089 8.32878 2.40435C6.6185 3.14317 5.22504 4.62186 4.54589 6.35385C3.49389 9.03656 3.50125 12.4777 4.68154 15.1185C5.49928 16.948 6.95402 18.5575 8.85758 19.2718C10.6748 19.9537 12.6496 19.7521 14.3902 18.9545C15.1675 18.5579 15.8862 17.9684 16.3485 17.221C16.6101 16.7982 16.8024 15.9946 17.2173 15.7216L17.3328 15.7674C17.7787 16.3307 17.9446 18.0922 18.0911 18.85C16.4135 20.3287 14.3895 21.3091 12.1648 21.6018C9.25325 21.9842 6.21464 21.3966 3.86197 19.5812C1.72038 17.9285 0.419565 15.3317 0.0979864 12.6707C-0.275765 9.57839 0.40703 6.45756 2.36431 3.99628C4.16786 1.72835 6.82068 0.402393 9.67462 0.0749318Z" fill="#0B0803"/>
<path d="M64.3528 7.41985C63.5734 7.2258 62.6301 7.12104 61.831 7.22012C59.9661 7.40333 58.3715 8.12233 57.16 9.58463C55.8175 11.2228 55.1803 13.3266 55.3868 15.4343C55.5724 17.2312 56.3987 19.0176 57.8323 20.1542C59.338 21.349 61.4655 21.6859 63.3339 21.4646C64.9928 21.2685 66.4635 20.5521 67.4922 19.2127C67.9628 18.6007 68.3046 17.909 68.5742 17.1884C68.5412 17.1572 68.5083 17.1249 68.4752 17.0924C68.3163 16.9361 68.1522 16.7748 67.9383 16.7098C67.9194 16.7184 67.9031 16.7253 67.8888 16.7313C67.8237 16.7588 67.7975 16.7698 67.7436 16.8517C66.8564 18.1579 65.8396 19.0226 64.2512 19.3195C63.0131 19.5511 61.7827 19.338 60.7441 18.6093C59.9178 18.0294 59.2658 17.1735 58.8841 16.242C60.7834 15.1159 62.8478 13.9761 65.0328 13.5285C65.4653 13.4399 65.9062 13.3902 66.3458 13.3406C66.8081 13.2885 67.2688 13.2365 67.7164 13.1397C68.0168 13.0748 68.2325 13.0137 68.3347 12.6954C68.5903 11.8965 68.1869 10.5914 67.7843 9.90299C67.0483 8.64328 65.7555 7.76889 64.3528 7.41985ZM62.4207 8.69084C62.7757 8.69294 63.156 8.71808 63.4977 8.81248C64.0762 8.97201 64.6 9.31473 64.8823 9.85656C65.0776 10.2315 65.2303 10.8326 65.0769 11.2429C64.948 11.5873 64.6694 11.8227 64.3612 12.0047C63.9766 12.2314 63.516 12.3772 63.0723 12.5176C62.9215 12.5653 62.7726 12.6124 62.6294 12.6619C61.8541 12.9297 61.0901 13.2219 60.3513 13.5792C60.1824 13.6544 59.9689 13.7893 59.7414 13.9329C59.3142 14.2027 58.8379 14.5036 58.5158 14.4983C58.3435 14.3542 58.2994 14.2345 58.2812 14.0179C58.1615 12.5813 58.7399 10.9471 59.6692 9.86104C60.3498 9.06606 61.4179 8.77214 62.4207 8.69084Z" fill="#0B0803"/>
<path d="M78.3204 7.28272C77.7685 7.20709 77.2097 7.18601 76.6537 7.21977C74.7614 7.37412 73.1612 8.06434 71.9231 9.53749C70.561 11.1688 69.907 13.277 70.1065 15.3931C70.2732 17.1457 71.0919 18.9382 72.4722 20.0636C73.9582 21.2755 76.1753 21.6901 78.0458 21.4779C79.7105 21.2895 81.2063 20.5072 82.2455 19.1858C82.7239 18.5724 83.0986 17.8845 83.3541 17.1496C83.3218 17.1216 83.2881 17.0908 83.2531 17.0589C83.0799 16.901 82.8762 16.7153 82.6594 16.698C81.7687 18.0397 80.7021 18.9837 79.0858 19.3095C77.868 19.5553 76.6859 19.376 75.6403 18.682C74.7432 18.0864 74.0906 17.219 73.6255 16.258C75.6788 14.8611 78.2049 13.7911 80.6461 13.3395C80.9488 13.2834 81.2564 13.2597 81.564 13.2359C81.8185 13.2162 82.0729 13.1966 82.3247 13.1586C82.6525 13.1092 82.9851 13.0342 83.0586 12.6595C83.2652 11.6029 82.8485 10.3319 82.2245 9.48238C81.2834 8.20068 79.8736 7.49884 78.3204 7.28272ZM76.5171 8.74216C77.1536 8.69174 77.7734 8.66037 78.3868 8.88481C78.9751 9.09988 79.4493 9.52419 79.7048 10.0992C79.8736 10.4777 79.9471 10.9015 79.7874 11.296C79.6964 11.5186 79.5297 11.7208 79.3365 11.8623C78.8739 12.2002 77.7317 12.5989 76.7381 12.9457C76.2484 13.1166 75.7948 13.275 75.4764 13.4072C74.9657 13.6349 74.4735 13.9111 73.9823 14.1867C73.7098 14.3397 73.4375 14.4925 73.1626 14.6367C72.9322 13.2296 73.0765 11.7956 73.8426 10.5621C74.4757 9.54393 75.3679 9.00541 76.5171 8.74216Z" fill="#0B0803"/>
<path d="M29.3594 24.1635C30.8654 24.1551 35.0965 23.9674 36.2378 24.2686C36.3334 24.3995 36.3244 24.4016 36.3127 24.5648C36.0488 25.0095 35.4858 25.1881 35.0953 25.5067C34.8698 25.6902 34.6663 25.9521 34.5983 26.2392C34.3463 27.3023 34.4457 28.5313 34.4448 29.6231L34.4149 34.2339C34.407 35.3341 34.4413 36.4587 34.3124 37.5512C34.128 39.1157 33.4375 40.5695 32.1735 41.5436C30.5979 42.7587 28.3984 43.029 26.4727 42.7678C24.7861 42.5395 23.1406 41.8091 22.0918 40.4246C21.1404 39.1689 20.8994 37.7025 21.1013 36.1674C21.1546 35.8964 21.2225 35.6345 21.3197 35.3754C21.6786 34.4188 22.3807 33.6323 23.3277 33.2261C24.3278 32.7976 25.589 32.766 26.594 33.1988C27.083 33.4089 27.3912 33.771 27.5709 34.2717C27.681 34.5777 27.717 34.8396 27.5766 35.1373C27.1713 35.5203 26.2596 35.007 25.6932 35.166C25.1705 35.3123 24.7708 35.6786 24.5206 36.1534C24.0861 36.9777 24.0758 38.0547 24.3864 38.9217C24.6632 39.6948 25.2905 40.3188 26.0294 40.6606C26.9066 41.066 28.14 41.1676 29.0565 40.8265C29.7664 40.5625 30.2879 39.9981 30.5742 39.3048C30.8209 38.7074 30.9366 38.0204 30.9947 37.3796C31.1257 35.9356 31.2881 27.214 30.97 26.2707C30.6344 25.2756 29.4903 25.2462 29.2281 24.6404C29.2282 24.4941 29.2314 24.3925 29.302 24.2644C29.3206 24.2301 29.3403 24.1971 29.3594 24.1635Z" fill="#0B0803"/>
<path d="M60.4768 40.3209C61.119 38.7312 61.6736 37.0932 62.2654 35.4832C62.7269 34.2297 63.2969 32.9327 63.5798 31.6281C63.6401 31.35 63.6667 31.0748 63.5889 30.7975C63.3515 29.9501 62.2584 30.0181 62.0112 29.3633C62.0455 29.2197 62.0252 29.1574 62.1624 29.0692C62.4152 28.9074 66.8783 28.8906 67.4252 28.9599C67.6073 28.983 67.7368 29.0236 67.8566 29.17C67.8692 29.4844 67.7929 29.628 67.5099 29.7884C67.0561 30.0447 66.4784 30.1756 66.138 30.5972C65.6023 31.2611 63.5847 36.942 63.0868 38.2333L61.4229 42.55C61.0041 43.634 60.612 44.8127 59.9887 45.7987C59.6112 46.3953 59.1028 46.9731 58.4865 47.3281C57.5873 47.845 56.4473 47.9402 55.4535 47.6608C54.6811 47.443 53.9745 46.9647 53.6047 46.2371C53.312 45.6614 53.2399 44.8953 53.4549 44.2818C53.6152 43.8245 53.9857 43.4457 54.4269 43.2489C54.7126 43.1221 55.1797 43.0115 55.4752 43.1718C56.1783 43.5542 55.7203 44.8169 55.99 45.4905C56.081 45.7167 56.214 45.8764 56.4451 45.9696C56.8212 46.1208 57.4739 45.9135 57.8128 45.749C58.9585 45.1901 59.4396 43.3889 59.8206 42.2769C59.3395 42.286 58.7835 42.3448 58.3094 42.2622C58.2358 42.2495 58.1434 42.2299 58.0776 42.1914C57.9207 42.1004 57.8198 41.9351 57.7386 41.7768C57.3647 41.0478 57.1111 40.2005 56.8191 39.4329L55.0004 34.6471C54.6426 33.7066 54.3176 32.7261 53.8785 31.8213C53.5508 31.1469 53.1138 30.4579 52.4401 30.0853C52.1061 29.9011 51.6663 29.9032 51.4401 29.5685C51.4009 29.3402 51.4415 29.2015 51.5122 28.983C52.7181 28.934 57.5663 28.8079 58.4578 29.0558C58.5068 29.226 58.5153 29.4613 58.448 29.6287C58.3416 29.8934 57.8296 29.9746 57.5943 30.0692C57.3401 30.1714 57.1202 30.3255 57.0215 30.5923C56.913 30.8871 57.0579 31.3612 57.1427 31.6603C57.5117 32.9677 58.107 34.2619 58.5972 35.5343C59.21 37.124 59.7625 38.7739 60.4768 40.3209Z" fill="#0B0803"/>
<path d="M51.9412 1.2623C53.012 1.20649 54.0281 1.34326 54.963 1.90364C55.6458 2.31262 56.2243 2.92811 56.3965 3.72435C56.4904 4.15658 56.461 4.6143 56.2096 4.98973C55.9364 5.39738 55.3846 5.7151 54.9 5.77582C54.6087 5.81224 54.2669 5.77253 54.0337 5.58408C53.4924 5.14667 53.7445 4.3687 53.6416 3.77023C53.5855 3.44809 53.4182 3.177 53.1394 3.00241C52.7178 2.73791 52.0589 2.65051 51.5806 2.78322C51.1625 2.89905 50.8613 3.19471 50.6688 3.57589C50.056 4.78594 50.3949 6.36751 50.7738 7.59122C52.0582 7.62308 53.3481 7.59717 54.6332 7.59598C54.6367 8.14116 54.6269 8.67725 54.5856 9.22096C53.3446 9.21963 52.1009 9.20079 50.8613 9.24813C50.7822 10.5232 50.813 11.8188 50.8053 13.0969C50.7934 15.0096 50.605 17.1212 51.0434 18.9825C51.11 19.1549 51.1835 19.3173 51.2731 19.4795C51.6597 20.1829 51.8978 20.1077 52.5855 20.3343C52.8201 20.4113 52.9559 20.5065 53.0582 20.725C53.0491 20.9099 53.0204 20.98 52.9111 21.1291C52.8502 21.1676 52.8257 21.19 52.7459 21.2047C52.4966 21.2524 46.509 21.2265 46.17 21.1704C45.9375 21.1312 45.7736 21.0801 45.6273 20.8826C45.7239 20.3175 46.3528 20.3574 46.731 19.9918C47.1644 19.5731 47.3822 19.0116 47.5027 18.4317C47.7646 17.1691 47.6638 15.7387 47.6589 14.4495L47.6344 9.23112L45.1854 9.22201C45.1357 8.68306 45.1322 8.13899 45.1182 7.59815L47.5566 7.59689C47.4369 7.2321 47.3178 6.85317 47.2653 6.47185C47.1098 5.345 47.3717 4.19979 48.0643 3.28674C48.9852 2.07304 50.4664 1.45299 51.9412 1.2623Z" fill="#0B0803"/>
<path d="M41.8056 1.26377C42.7923 1.18071 43.7398 1.25263 44.625 1.73738C45.3323 2.12479 45.9366 2.76381 46.1537 3.55467C46.2882 4.04474 46.3029 4.66556 46.0256 5.11207C45.8295 5.42826 45.5017 5.61328 45.1418 5.68071C44.814 5.7422 44.3805 5.74143 44.1067 5.52174C43.5885 5.10583 43.9352 4.30616 43.8196 3.7553C43.7503 3.42357 43.4828 3.14219 43.1921 2.98308C42.7348 2.7323 42.0759 2.70184 41.5812 2.85058C41.1706 2.97404 40.8604 3.24261 40.672 3.62729C40.1259 4.74224 40.5402 6.45049 40.9148 7.56005C42.1445 7.63295 43.4015 7.57629 44.6355 7.58267C44.6663 8.13282 44.6383 8.67184 44.6053 9.22137C43.3532 9.21857 42.1004 9.22305 40.848 9.23468C40.7904 10.8005 40.7673 12.3673 40.7785 13.9342C40.7743 15.5483 40.6135 17.3617 41.087 18.9186C41.6071 20.0584 42.6872 20.2506 42.9421 20.8595C42.9029 20.9708 42.919 20.9897 42.8091 21.0549C42.4141 21.2909 36.4178 21.2447 35.8817 21.1172C35.8611 21.0444 35.8335 20.9603 35.8309 20.8847C35.8147 20.4092 36.5643 20.2095 36.8524 19.9253C37.2534 19.5295 37.4516 18.7962 37.5447 18.2501C37.7539 17.0229 37.6875 15.6702 37.6863 14.4269L37.6757 9.23188L35.2333 9.22151C35.1963 8.67941 35.1968 8.14025 35.1992 7.59709C35.9782 7.60564 36.7573 7.60472 37.5364 7.59443C37.4158 7.19764 37.2887 6.79924 37.2274 6.38816C37.0609 5.27013 37.3039 4.16561 37.9875 3.25676C38.9059 2.03571 40.3353 1.47 41.8056 1.26377Z" fill="#0B0803"/>
</g>
<defs>
<clipPath id="clip0_18203_197">
<rect width="83.3545" height="47.8147" fill="white"/>
</clipPath>
</defs>
</svg>
